Jump_normalized_pl14_filtered_grf
version=1
nRows=27
nColumns=37
inDegrees=yes
endheader
time		1_ground_force_vx		1_ground_force_vy		1_ground_force_vz		1_ground_force_px		1_ground_force_py		1_ground_force_pz		1_ground_torque_x		1_ground_torque_y		1_ground_torque_z		2_ground_force_vx		2_ground_force_vy		2_ground_force_vz		2_ground_force_px		2_ground_force_py		2_ground_force_pz		2_ground_torque_x		2_ground_torque_y		2_ground_torque_z		3_ground_force_vx		3_ground_force_vy		3_ground_force_vz		3_ground_force_px		3_ground_force_py		3_ground_force_pz		3_ground_torque_x		3_ground_torque_y		3_ground_torque_z		4_ground_force_vx		4_ground_force_vy		4_ground_force_vz		4_ground_force_px		4_ground_force_py		4_ground_force_pz		4_ground_torque_x		4_ground_torque_y		4_ground_torque_z		
0.622000		-0.000000		0.000000		0.000000		0.131163		0.000000		0.255524		0.000000		0.000000		-0.000000		0.000000		0.000000		-0.000000		-0.134203		0.000000		0.291502		0.000000		0.000000		0.000000		-2.825211		321.313139		202.315733		0.375274		1.309390		1.914313		-1.238353		14.707436		-49.956515		-21.535890		314.530640		210.935089		-0.265976		1.308988		1.926339		-1.132720		16.543323		11.094522		
0.626242		-0.000000		0.000000		0.000000		0.131163		0.000000		0.255524		0.000000		0.000000		-0.000000		0.000000		0.000000		0.000000		-0.134203		0.000000		0.291502		0.000000		-0.000000		0.000000		-4.387051		319.970816		204.412949		0.375154		1.309496		1.914506		-0.927741		15.053002		-49.971163		-21.017122		315.260662		213.315695		-0.265981		1.308976		1.926370		-1.105087		16.576501		11.216204		
0.630485		-0.000000		0.000000		0.000000		0.131163		0.000000		0.255524		0.000000		0.000000		-0.000000		0.000000		0.000000		0.000000		-0.134203		0.000000		0.291502		0.000000		-0.000000		0.000000		-5.799966		318.880282		206.671584		0.375018		1.309518		1.914665		-0.625917		15.422826		-50.007529		-20.427097		316.166517		215.661668		-0.265988		1.308966		1.926402		-1.073981		16.622860		11.338688		
0.634727		-0.000000		0.000000		0.000000		0.131163		0.000000		0.255524		0.000000		0.000000		-0.000000		-0.000000		0.000000		0.000000		-0.134203		0.000000		0.291502		0.000000		-0.000000		0.000000		-6.833887		318.032616		209.061207		0.374903		1.309448		1.914744		-0.380579		15.807360		-50.066374		-19.790214		317.507494		218.010076		-0.265993		1.308958		1.926431		-1.040718		16.696932		11.464609		
0.638970		0.000000		-0.000000		-0.000000		0.131163		0.000000		0.255524		-0.000000		-0.000000		0.000000		-0.000000		-0.000000		0.000000		-0.134203		0.000000		0.291502		-0.000000		0.000000		-0.000000		-7.498497		317.406926		211.575395		0.374828		1.309329		1.914740		-0.202817		16.195991		-50.152751		-19.086362		319.510647		220.379856		-0.265994		1.308950		1.926457		-1.004111		16.809079		11.593925		
0.643212		0.000000		-0.000000		-0.000000		0.131163		0.000000		0.255524		-0.000000		-0.000000		0.000000		-0.000000		-0.000000		-0.000000		-0.134203		0.000000		0.291502		-0.000000		0.000000		-0.000000		-7.951766		317.034845		214.216364		0.374795		1.309214		1.914694		-0.073254		16.582554		-50.278240		-18.273094		322.268983		222.753288		-0.265992		1.308944		1.926484		-0.961683		16.960494		11.723144		
0.647455		0.000000		-0.000000		-0.000000		0.131163		0.000000		0.255524		-0.000000		-0.000000		0.000000		0.000000		-0.000000		-0.000000		-0.134203		0.000000		0.291502		-0.000000		0.000000		-0.000000		-8.271804		317.031036		216.941496		0.374794		1.309137		1.914646		0.019057		16.961303		-50.460636		-17.344273		325.678489		225.130806		-0.265992		1.308940		1.926517		-0.912925		17.142266		11.849884		
0.651697		0.000000		-0.000000		-0.000000		0.131163		0.000000		0.255524		-0.000000		-0.000000		0.000000		0.000000		-0.000000		-0.000000		-0.134203		0.000000		0.291502		-0.000000		0.000000		-0.000000		-8.438671		317.527091		219.682735		0.374819		1.309109		1.914633		0.071727		17.328014		-50.718356		-16.363707		329.523759		227.569152		-0.265997		1.308939		1.926559		-0.861193		17.342249		11.976560		
0.655939		-0.000000		0.000000		0.000000		0.131163		0.000000		0.255524		0.000000		0.000000		-0.000000		0.000000		0.000000		-0.000000		-0.134203		0.000000		0.291502		0.000000		-0.000000		0.000000		-8.450331		318.528617		222.434711		0.374856		1.309112		1.914658		0.088816		17.690173		-51.056193		-15.442791		333.615470		230.195659		-0.266005		1.308941		1.926608		-0.812490		17.552492		12.111271		
0.660182		-0.000000		0.000000		0.000000		0.131163		0.000000		0.255524		0.000000		0.000000		-0.000000		0.000000		0.000000		0.000000		-0.134203		0.000000		0.291502		0.000000		-0.000000		0.000000		-8.336137		319.917827		225.248618		0.374897		1.309128		1.914711		0.080815		18.061654		-51.463368		-14.636774		337.946799		233.183476		-0.266006		1.308943		1.926657		-0.769834		17.774604		12.264486		
0.664424		-0.000000		0.000000		0.000000		0.131163		0.000000		0.255524		0.000000		0.000000		-0.000000		-0.000000		0.000000		0.000000		-0.134203		0.000000		0.291502		0.000000		-0.000000		0.000000		-8.186017		321.510847		228.239835		0.374931		1.309140		1.914765		0.069248		18.461848		-51.919295		-13.850749		342.735251		236.672147		-0.265992		1.308940		1.926698		-0.728138		18.017690		12.441922		
0.668667		-0.000000		0.000000		0.000000		0.131163		0.000000		0.255524		0.000000		0.000000		-0.000000		-0.000000		0.000000		0.000000		-0.134203		0.000000		0.291502		0.000000		-0.000000		0.000000		-8.092869		323.196176		231.544679		0.374956		1.309136		1.914799		0.071912		18.906656		-52.411130		-12.882199		348.303654		240.717382		-0.265961		1.308931		1.926733		-0.676523		18.291536		12.641529		
0.672909		0.000000		-0.000000		-0.000000		0.131163		0.000000		0.255524		-0.000000		-0.000000		0.000000		-0.000000		-0.000000		-0.000000		-0.134203		0.000000		0.291502		-0.000000		0.000000		-0.000000		-8.054389		325.010713		235.257294		0.374972		1.309113		1.914800		0.083765		19.399132		-52.944319		-11.552949		354.883979		245.284924		-0.265921		1.308916		1.926765		-0.605523		18.600457		12.856065		
0.677152		0.000000		-0.000000		-0.000000		0.131163		0.000000		0.255524		-0.000000		-0.000000		0.000000		-0.000000		-0.000000		-0.000000		-0.134203		0.000000		0.291502		-0.000000		0.000000		-0.000000		-7.966527		327.076407		239.403525		0.374990		1.309070		1.914763		0.081394		19.932225		-53.537235		-9.834736		362.510782		250.328320		-0.265883		1.308900		1.926803		-0.513870		18.941318		13.079744		
0.681394		0.000000		-0.000000		-0.000000		0.131163		0.000000		0.255524		-0.000000		-0.000000		0.000000		0.000000		-0.000000		-0.000000		-0.134203		0.000000		0.291502		-0.000000		0.000000		-0.000000		-7.715661		329.480979		243.948564		0.375024		1.309014		1.914709		0.047442		20.497797		-54.204673		-7.888088		371.019947		255.856221		-0.265862		1.308886		1.926851		-0.410444		19.305359		13.313021		
0.685636		-0.000000		0.000000		-0.000000		0.131163		0.000000		0.255524		0.000000		0.000000		-0.000000		0.000000		-0.000000		-0.000000		-0.134203		0.000000		0.291502		-0.000000		0.000000		-0.000000		-7.322960		332.204361		248.890977		0.375073		1.308962		1.914673		0.001977		21.102731		-54.945511		-5.995418		380.144241		261.957063		-0.265861		1.308876		1.926908		-0.912085		-17.073145		66.890094		
0.689879		-0.000000		0.000000		0.000000		0.131163		0.000000		0.255524		0.000000		0.000000		-0.000000		0.000000		0.000000		0.000000		-0.134203		0.000000		0.291502		0.000000		-0.000000		0.000000		-6.898017		335.181248		254.315719		0.375120		1.308927		1.914687		-0.012350		21.770427		-55.749253		-4.452983		389.639143		268.762271		-0.265874		1.308864		1.926971		-1.005559		-17.682355		68.563705		
0.694121		-0.000000		0.000000		0.000000		0.131163		0.000000		0.255524		0.000000		0.000000		-0.000000		0.000000		0.000000		0.000000		-0.134203		0.000000		0.291502		0.000000		-0.000000		0.000000		-6.586199		338.382032		260.428055		0.375143		1.308916		1.914771		0.257034		-13.205755		-10.163512		-3.459532		399.351799		276.402628		-0.265885		1.308850		1.927036		-1.099140		-18.414936		70.331686		
0.698364		-0.000000		0.000000		0.000000		0.131163		0.000000		0.255524		0.000000		0.000000		-0.000000		-0.000000		0.000000		0.000000		-0.134203		0.000000		0.291502		0.000000		-0.000000		0.000000		-6.386309		341.860443		267.462468		0.375131		1.308917		1.914901		0.250068		-13.386190		-10.472998		-3.065842		409.195309		284.931468		-0.265889		1.308832		1.927102		-1.188515		-19.277871		72.190788		
0.702606		0.000000		-0.000000		-0.000000		0.131163		0.000000		0.255524		-0.000000		-0.000000		0.000000		-0.000000		-0.000000		0.000000		-0.134203		0.000000		0.291502		0.000000		-0.000000		-0.000000		-6.276890		345.665186		275.567421		0.375083		1.308915		1.915051		0.246374		-13.567708		-10.816301		-3.186691		419.051047		294.294710		-0.265886		1.308815		1.927173		-1.271442		-20.265474		74.126325		
0.706848		0.000000		-0.000000		-0.000000		0.131163		0.000000		0.255524		-0.000000		-0.000000		0.000000		-0.000000		-0.000000		-0.000000		-0.134203		0.000000		0.291502		-0.000000		0.000000		-0.000000		-6.212806		349.713352		284.711410		0.375012		1.308895		1.915188		0.244287		-13.750711		-11.194839		-3.640574		428.731358		304.334908		-0.265879		1.308803		1.927256		-1.344256		-21.365245		76.106237		
0.711091		0.000000		-0.000000		-0.000000		0.131163		0.000000		0.255524		-0.000000		-0.000000		0.000000		0.000000		-0.000000		-0.000000		-0.134203		0.000000		0.291502		-0.000000		0.000000		-0.000000		-6.142425		353.721615		294.678105		0.374936		1.308857		1.915301		0.241907		-13.930618		-11.605308		-4.227606		438.039234		314.849789		-0.265875		1.308798		1.927352		-1.403087		-22.565111		78.090987		
0.715333		0.000000		-0.000000		-0.000000		0.131163		0.000000		0.255524		-0.000000		-0.000000		0.000000		0.000000		-0.000000		-0.000000		-0.134203		0.000000		0.291502		-0.000000		0.000000		-0.000000		-5.997020		357.235504		305.178053		0.374873		1.308803		1.915391		0.236665		-14.097863		-12.043482		-4.814005		446.833439		325.695950		-0.265877		1.308795		1.927462		-1.446659		-23.861475		80.047919		
0.719576		-0.000000		0.000000		0.000000		0.131163		0.000000		0.255524		0.000000		0.000000		-0.000000		0.000000		0.000000		-0.000000		-0.134203		0.000000		0.291502		0.000000		-0.000000		0.000000		-5.678614		359.751839		315.918578		0.374835		1.308735		1.915467		0.224792		-14.241058		-12.505887		-5.353459		455.036535		336.799545		-0.265881		1.308789		1.927587		-1.478279		-25.254641		81.956277		
0.723818		-0.000000		0.000000		0.000000		0.131163		0.000000		0.255524		0.000000		0.000000		-0.000000		0.000000		0.000000		0.000000		-0.134203		0.000000		0.291502		0.000000		-0.000000		0.000000		-5.126853		360.812381		326.603811		0.374821		1.308655		1.915542		0.203888		-14.349033		-12.988610		-5.870256		462.524415		348.147448		-0.265884		1.308776		1.927727		-1.507452		-26.750638		83.797241		
0.728061		-0.000000		0.000000		0.000000		0.131163		0.000000		0.255524		0.000000		0.000000		-0.000000		-0.000000		0.000000		0.000000		-0.134203		0.000000		0.291502		0.000000		-0.000000		0.000000		-4.304093		360.071114		336.854133		0.374817		1.308569		1.915624		0.172273		-14.412039		-13.482772		-6.448153		469.088259		359.717622		-0.265884		1.308757		1.927880		-1.542306		-28.355511		85.547601		
0.732303		-0.000000		0.000000		0.000000		0.131163		0.000000		0.255524		0.000000		0.000000		-0.000000		-0.000000		0.000000		0.000000		-0.134203		0.000000		0.291502		0.000000		-0.000000		0.000000		-3.182966		357.296026		346.132825		0.374804		1.308496		1.915732		0.128470		-14.421232		-13.970677		-7.262372		474.442924		371.493053		-0.265882		1.308740		1.928044		-1.584899		-30.081977		87.179942		
